<svg width="75" height="105" viewBox="0 0 75 105" fill="none" xmlns="http://www.w3.org/2000/svg">
<rect x="2.5" y="27.456" width="69.8031" height="74.3747" rx="2.5" stroke="#272588" stroke-width="5"/>
<path d="M3.02124 28.252L41.6564 4.64745C44.9881 2.61186 49.2631 5.00974 49.2631 8.91414V27.6242" stroke="#272588" stroke-width="5"/>
<path d="M53.0418 35.7186H63.6023C64.1546 35.7186 64.6023 36.1663 64.6023 36.7186V47.154" stroke="#272588" stroke-width="3" stroke-linecap="round"/>
<path d="M22.4413 94.2406H11.8809C11.3286 94.2406 10.8809 93.7929 10.8809 93.2406V82.8053" stroke="#272588" stroke-width="3" stroke-linecap="round"/>
<rect x="18.6807" y="47.4813" width="14.9035" height="14.7206" rx="1" stroke="#272588" stroke-width="2"/>
<rect x="18.6807" y="68.6609" width="14.9035" height="14.7206" rx="1" stroke="#272588" stroke-width="2"/>
<rect x="41.2188" y="47.4813" width="14.9035" height="14.7206" rx="1" stroke="#272588" stroke-width="2"/>
<rect x="23.3154" y="52.0548" width="5.63452" height="5.57352" rx="1" fill="#272588"/>
<path d="M55.4319 73.2343V81.7093C55.4319 82.2615 54.9842 82.7093 54.4319 82.7093H45.8532" stroke="#272588" stroke-width="2" stroke-linecap="round"/>
<path d="M41.9087 78.8076V70.3326C41.9087 69.7803 42.3564 69.3326 42.9087 69.3326H51.4874" stroke="#272588" stroke-width="2" stroke-linecap="round"/>
</svg>
