<svg width="40" height="40" viewBox="0 0 40 40" fill="none" xmlns="http://www.w3.org/2000/svg">
<path d="M40 20.0005C40 8.95384 31.0457 0.000244141 20.0003 0.000244141C8.95441 0.000244141 0 8.95384 0 20.0005C0 31.0454 8.95441 39.9998 20.0003 39.9998C31.0457 39.9998 40 31.0454 40 20.0005Z" fill="#25B7D3"/>
<path d="M25.4153 28.9871C25.3035 28.8233 25.089 28.765 24.9098 28.8499C22.928 29.788 20.6787 30.7799 20.2373 30.8666C20.2261 30.8566 20.2085 30.8385 20.1854 30.8071C20.1255 30.7261 20.0964 30.6203 20.0964 30.4834C20.0964 29.3624 20.9425 25.9522 22.6111 20.348C24.018 15.6394 24.1807 14.6645 24.1807 14.3408C24.1807 13.8411 23.9894 13.4189 23.6272 13.1197C23.2832 12.836 22.8026 12.6923 22.1987 12.6923C21.1943 12.6923 20.0302 13.0736 18.6397 13.8581C17.2923 14.6186 15.7897 15.9066 14.1737 17.6865C14.0472 17.8259 14.034 18.0343 14.1419 18.1886C14.2499 18.343 14.4502 18.4017 14.6245 18.3308C15.1918 18.0992 18.0429 16.9313 18.4585 16.6703C18.7988 16.4569 19.0934 16.3487 19.3341 16.3487C19.3427 16.3487 19.3501 16.349 19.3563 16.3495C19.3592 16.3654 19.362 16.3898 19.362 16.4247C19.362 16.6703 19.3114 16.9611 19.2124 17.2876C16.7828 25.1593 15.6018 29.985 15.6018 32.0405C15.6018 32.7659 15.8034 33.3499 16.201 33.776C16.6061 34.2108 17.1525 34.4312 17.8251 34.4312C18.5419 34.4312 19.4143 34.1318 20.492 33.5159C21.5349 32.9199 23.1267 31.609 25.3585 29.5077C25.503 29.3717 25.5271 29.1509 25.4153 28.9871Z" fill="white"/>
<path d="M25.3373 6.18119C24.9403 5.77479 24.4322 5.56873 23.8274 5.56873C23.0744 5.56873 22.4186 5.86629 21.8783 6.4532C21.3467 7.03044 21.0771 7.73876 21.0771 8.55842C21.0771 9.20603 21.2757 9.74272 21.6673 10.1535C22.0641 10.5704 22.5653 10.7818 23.1568 10.7818C23.879 10.7818 24.5313 10.4676 25.0955 9.84777C25.6498 9.23885 25.9309 8.52295 25.9309 7.71998C25.931 7.10291 25.7313 6.58526 25.3373 6.18119Z" fill="white"/>
</svg>
