<svg width="250" height="105" viewBox="0 0 250 105" fill="none" xmlns="http://www.w3.org/2000/svg">
<rect x="2.5" y="27.456" width="69.8031" height="74.3747" rx="2.5" stroke="#272588" stroke-width="5"/>
<path d="M3.02124 28.252L41.6564 4.64745C44.9881 2.61186 49.2631 5.00974 49.2631 8.91414V27.6242" stroke="#272588" stroke-width="5"/>
<path d="M53.0418 35.7186H63.6023C64.1546 35.7186 64.6023 36.1663 64.6023 36.7186V47.154" stroke="#272588" stroke-width="3" stroke-linecap="round"/>
<path d="M22.4413 94.2406H11.8809C11.3286 94.2406 10.8809 93.7929 10.8809 93.2406V82.8053" stroke="#272588" stroke-width="3" stroke-linecap="round"/>
<rect x="18.6807" y="47.4813" width="14.9035" height="14.7206" rx="1" stroke="#272588" stroke-width="2"/>
<rect x="18.6807" y="68.6609" width="14.9035" height="14.7206" rx="1" stroke="#272588" stroke-width="2"/>
<rect x="41.2188" y="47.4813" width="14.9035" height="14.7206" rx="1" stroke="#272588" stroke-width="2"/>
<rect x="23.3154" y="52.0548" width="5.63452" height="5.57352" rx="1" fill="#272588"/>
<path d="M55.4319 73.2343V81.7093C55.4319 82.2615 54.9842 82.7093 54.4319 82.7093H45.8532" stroke="#272588" stroke-width="2" stroke-linecap="round"/>
<path d="M41.9087 78.8076V70.3326C41.9087 69.7803 42.3564 69.3326 42.9087 69.3326H51.4874" stroke="#272588" stroke-width="2" stroke-linecap="round"/>
<path d="M100.202 69.5923C100.202 68.5962 99.8508 67.8345 99.1477 67.3071C98.4446 66.7681 97.179 66.2056 95.3508 65.6196C93.5227 65.022 92.0754 64.436 91.009 63.8618C88.1028 62.2915 86.6497 60.1763 86.6497 57.5161C86.6497 56.1333 87.0364 54.9028 87.8098 53.8247C88.595 52.7349 89.7141 51.8853 91.1672 51.2759C92.6321 50.6665 94.2727 50.3618 96.0891 50.3618C97.9172 50.3618 99.5461 50.6958 100.976 51.3638C102.406 52.02 103.513 52.9517 104.298 54.1587C105.095 55.3657 105.493 56.7368 105.493 58.272H100.22C100.22 57.1001 99.8508 56.1919 99.1125 55.5474C98.3743 54.8911 97.3372 54.563 96.0012 54.563C94.7122 54.563 93.7102 54.8384 92.9954 55.3892C92.2805 55.9282 91.9231 56.6431 91.9231 57.5337C91.9231 58.3657 92.3391 59.063 93.1711 59.6255C94.0149 60.188 95.2512 60.7153 96.8801 61.2075C99.8801 62.1099 102.066 63.229 103.437 64.5649C104.808 65.9009 105.493 67.5649 105.493 69.5571C105.493 71.772 104.656 73.5122 102.98 74.7778C101.304 76.0317 99.0481 76.6587 96.2122 76.6587C94.2434 76.6587 92.4504 76.3013 90.8333 75.5864C89.2161 74.8599 87.9797 73.8696 87.1243 72.6157C86.2805 71.3618 85.8586 69.9087 85.8586 68.2563H91.1497C91.1497 71.0806 92.8372 72.4927 96.2122 72.4927C97.4661 72.4927 98.4446 72.2407 99.1477 71.7368C99.8508 71.2212 100.202 70.5063 100.202 69.5923ZM117.499 76.6587C114.71 76.6587 112.437 75.8032 110.679 74.0923C108.933 72.3813 108.06 70.1021 108.06 67.2544V66.7622C108.06 64.8521 108.429 63.147 109.167 61.647C109.906 60.1353 110.948 58.9751 112.296 58.1665C113.656 57.3462 115.202 56.936 116.937 56.936C119.538 56.936 121.583 57.7563 123.072 59.397C124.572 61.0376 125.322 63.3638 125.322 66.3755V68.4497H113.21C113.374 69.6919 113.866 70.688 114.687 71.438C115.519 72.188 116.568 72.563 117.833 72.563C119.79 72.563 121.32 71.854 122.421 70.436L124.917 73.231C124.156 74.3091 123.124 75.1528 121.823 75.7622C120.523 76.3599 119.081 76.6587 117.499 76.6587ZM116.919 61.0493C115.911 61.0493 115.091 61.3892 114.458 62.0688C113.837 62.7485 113.439 63.7212 113.263 64.9868H120.329V64.5825C120.306 63.4575 120.001 62.5903 119.415 61.981C118.829 61.3599 117.997 61.0493 116.919 61.0493ZM133.583 76.3071H128.486V49.3071H133.583V76.3071ZM139.173 76.3071V61.0142H136.343V57.2876H139.173V55.6704C139.173 53.5376 139.782 51.8853 141.001 50.7134C142.232 49.5298 143.948 48.938 146.152 48.938C146.855 48.938 147.716 49.0552 148.736 49.2896L148.683 53.2271C148.261 53.1216 147.745 53.0688 147.136 53.0688C145.226 53.0688 144.271 53.9653 144.271 55.7583V57.2876H148.05V61.0142H144.271V76.3071H139.173ZM166.876 50.7134L173.45 69.2759L179.99 50.7134H186.915V76.3071H181.624V69.311L182.152 57.2349L175.243 76.3071H171.622L164.732 57.2524L165.259 69.311V76.3071H159.986V50.7134H166.876ZM199.941 76.6587C197.152 76.6587 194.878 75.8032 193.12 74.0923C191.374 72.3813 190.501 70.1021 190.501 67.2544V66.7622C190.501 64.8521 190.87 63.147 191.609 61.647C192.347 60.1353 193.39 58.9751 194.738 58.1665C196.097 57.3462 197.644 56.936 199.378 56.936C201.98 56.936 204.025 57.7563 205.513 59.397C207.013 61.0376 207.763 63.3638 207.763 66.3755V68.4497H195.652C195.816 69.6919 196.308 70.688 197.128 71.438C197.96 72.188 199.009 72.563 200.275 72.563C202.232 72.563 203.761 71.854 204.863 70.436L207.359 73.231C206.597 74.3091 205.566 75.1528 204.265 75.7622C202.964 76.3599 201.523 76.6587 199.941 76.6587ZM199.361 61.0493C198.353 61.0493 197.532 61.3892 196.9 62.0688C196.279 62.7485 195.88 63.7212 195.704 64.9868H202.771V64.5825C202.747 63.4575 202.443 62.5903 201.857 61.981C201.271 61.3599 200.439 61.0493 199.361 61.0493ZM215.339 57.2876L215.497 59.4849C216.857 57.7856 218.679 56.936 220.964 56.936C222.98 56.936 224.48 57.5278 225.464 58.7114C226.448 59.895 226.952 61.6646 226.976 64.02V76.3071H221.896V64.1431C221.896 63.0649 221.661 62.2856 221.193 61.8052C220.724 61.313 219.945 61.0669 218.855 61.0669C217.425 61.0669 216.353 61.6763 215.638 62.895V76.3071H210.558V57.2876H215.339ZM242.234 74.3735C240.98 75.897 239.245 76.6587 237.031 76.6587C234.991 76.6587 233.433 76.0728 232.355 74.9009C231.288 73.729 230.743 72.0122 230.72 69.7505V57.2876H235.8V69.5747C235.8 71.5552 236.702 72.5454 238.507 72.5454C240.23 72.5454 241.413 71.9478 242.058 70.7524V57.2876H247.156V76.3071H242.374L242.234 74.3735Z" fill="#272588"/>
</svg>
