<svg width="40" height="40" viewBox="0 0 40 40" fill="none" xmlns="http://www.w3.org/2000/svg">
<path d="M20 40C31.0457 40 40 31.0457 40 20C40 8.9543 31.0457 0 20 0C8.9543 0 0 8.9543 0 20C0 31.0457 8.9543 40 20 40Z" fill="#575B6D"/>
<path d="M33.125 19.149C33.1253 21.2569 32.573 23.328 31.5232 25.1558C30.4734 26.9836 28.9627 28.5043 27.1419 29.5662C25.3211 30.6281 23.2537 31.1942 21.1459 31.2079C19.0381 31.2216 16.9635 30.6825 15.1291 29.6443C11.805 31.7947 7.5 31.6581 7.5 31.6581C9.28469 30.6812 10.6675 28.4947 11.5878 26.5975C10.4002 25.0862 9.59101 23.313 9.22783 21.4255C8.86464 19.5381 8.95795 17.5912 9.49997 15.7471C10.042 13.9031 11.017 12.2153 12.3438 10.8246C13.6705 9.43391 15.3105 8.38052 17.127 7.7523C18.9435 7.12408 20.8838 6.93924 22.7863 7.21318C24.6887 7.48712 26.4981 8.21191 28.0635 9.32711C29.629 10.4423 30.9051 11.9156 31.7856 13.6242C32.666 15.3327 33.1253 17.227 33.125 19.149Z" fill="#EEEFEE"/>
<path d="M21.5199 18.3543C22.8015 18.6181 23.6722 19.0018 24.132 19.5056C24.6161 20.078 24.8629 20.8139 24.822 21.5625C24.8355 22.4309 24.5234 23.273 23.947 23.9228C23.64 24.2623 23.2658 24.5344 22.8482 24.7219C22.4306 24.9094 21.9786 25.0081 21.5208 25.0118V26.2134H20.6905V25.0259C18.5819 24.7953 17.4554 23.6616 17.3108 21.6249H18.8145C18.9283 22.9166 19.5533 23.6582 20.6895 23.8496V19.5171C18.5966 19.0986 17.5502 18.0778 17.5502 16.4546C17.5323 16.0478 17.5985 15.6417 17.7445 15.2616C17.8905 14.8814 18.1133 14.5355 18.3989 14.2453C19.0237 13.6614 19.8354 13.3181 20.6895 13.2765V12.0828H21.5189V13.2765C23.3587 13.4161 24.3691 14.3536 24.5502 16.089H23.0392C22.9559 15.1278 22.4494 14.5826 21.5199 14.4534V18.3543ZM20.6905 18.1837V14.44C19.6001 14.6312 19.0549 15.2642 19.0549 16.339C19.034 16.5699 19.0638 16.8026 19.1421 17.0208C19.2204 17.239 19.3454 17.4375 19.5083 17.6024C19.8512 17.8864 20.2562 18.0857 20.6905 18.184V18.1837ZM21.5199 23.8503C22.7136 23.7005 23.3105 22.9692 23.3105 21.6565C23.3396 21.213 23.2105 20.7735 22.9461 20.4162C22.7032 20.1268 22.2278 19.8891 21.5199 19.7031V23.8503Z" fill="#575B6D"/>
</svg>
