<svg width="40" height="40" viewBox="0 0 40 40" fill="none" xmlns="http://www.w3.org/2000/svg">
<g clip-path="url(#clip0)">
<path d="M20 40C31.0457 40 40 31.0457 40 20C40 8.95432 31.0457 0 20 0C8.95432 0 0 8.95432 0 20C0 31.0457 8.95432 40 20 40Z" fill="#F7CFA2"/>
<path d="M34.7803 19.8668L34.3276 8.92141C34.2477 7.13712 32.8363 5.72565 31.052 5.64578L20.1332 5.21969C19.1744 5.19306 18.269 5.53927 17.5766 6.20507L2.76969 21.0387C1.4381 22.3703 1.4381 24.5274 2.76969 25.8589L14.1412 37.2304C15.4728 38.562 17.6299 38.562 18.9614 37.2304L33.7949 22.3968C34.4607 21.731 34.8336 20.799 34.7803 19.8668ZM28.6285 11.3715C27.7763 10.5193 27.7763 9.1345 28.6285 8.25562C29.4807 7.40345 30.8655 7.40345 31.7444 8.25562C32.5966 9.10779 32.5966 10.4926 31.7444 11.3715C30.8655 12.2237 29.4808 12.2237 28.6285 11.3715Z" fill="#F0582F"/>
<path d="M18.2422 31.0252C23.3606 31.0252 27.5099 26.876 27.5099 21.7576C27.5099 16.6392 23.3606 12.49 18.2422 12.49C13.1239 12.49 8.97461 16.6392 8.97461 21.7576C8.97461 26.876 13.1239 31.0252 18.2422 31.0252Z" fill="#FBD303"/>
<path d="M18.9346 25.8855C20.2662 24.5539 20.2662 22.3968 18.9346 21.0387C18.3754 20.4794 18.3754 19.5473 18.9346 18.9614C19.4939 18.4021 20.426 18.4021 21.0119 18.9614C21.3049 19.2544 21.4646 19.6272 21.438 20.0533C21.4114 20.5859 21.8374 21.0387 22.3967 21.0653C22.9293 21.0919 23.3821 20.6658 23.4087 20.1065C23.4354 19.494 23.2756 18.9082 23.0093 18.3755L23.4886 17.8962C23.8614 17.5233 23.8614 16.8842 23.4886 16.5113C23.1158 16.1385 22.4766 16.1385 22.1038 16.5113L21.6244 16.9907C20.3195 16.2982 18.6684 16.4847 17.5765 17.5766C16.2449 18.9082 16.2449 21.0653 17.5765 22.4234C18.1358 22.9827 18.1358 23.9148 17.5765 24.5007C17.0172 25.06 16.0852 25.06 15.4993 24.5007C15.2063 24.2077 15.0465 23.8349 15.0732 23.4088C15.0998 22.8762 14.6737 22.4234 14.1144 22.3968C13.5818 22.3702 13.129 22.7963 13.1024 23.3556C13.0758 23.9681 13.2355 24.5539 13.5019 25.0866L13.0225 25.5659C12.6497 25.9388 12.6497 26.578 13.0225 26.9508C13.3954 27.3236 14.0345 27.3236 14.4074 26.9508L14.8867 26.4714C16.1916 27.1638 17.8428 26.9774 18.9346 25.8855Z" fill="#FCFCFD"/>
</g>
<defs>
<clipPath id="clip0">
<rect width="40" height="40" fill="white"/>
</clipPath>
</defs>
</svg>
