<svg width="25" height="26" viewBox="0 0 25 26" fill="none" xmlns="http://www.w3.org/2000/svg">
<path d="M24.6199 23.5858L18.457 17.176C20.0416 15.2923 20.9098 12.9222 20.9098 10.4549C20.9098 4.69015 16.2196 0 10.4549 0C4.69015 0 0 4.69015 0 10.4549C0 16.2196 4.69015 20.9098 10.4549 20.9098C12.619 20.9098 14.6814 20.257 16.4446 19.0179L22.6544 25.4763C22.9139 25.7458 23.263 25.8945 23.6371 25.8945C23.9912 25.8945 24.3272 25.7595 24.5822 25.514C25.124 24.9926 25.1413 24.1281 24.6199 23.5858ZM10.4549 2.72736C14.7159 2.72736 18.1824 6.19384 18.1824 10.4549C18.1824 14.7159 14.7159 18.1824 10.4549 18.1824C6.19384 18.1824 2.72736 14.7159 2.72736 10.4549C2.72736 6.19384 6.19384 2.72736 10.4549 2.72736Z" fill="#A3A3A3"/>
</svg>
