<svg height="512pt" viewBox="0 0 512 512.00001" width="512pt" xmlns="http://www.w3.org/2000/svg"><path d="m512 256c0 141.386719-114.617188 256-256 256-141.386719 0-256-114.613281-256-256 0-141.382812 114.613281-256 256-256 141.382812 0 256 114.617188 256 256zm0 0" fill="#f46d11"/><path d="m382.117188 449.578125v29.246094c-25.546876 14.503906-53.84375 24.722656-83.902344 29.707031-6.449219 1.066406-12.96875 1.902344-19.5625 2.476562-4.105469.367188-8.242188.625-12.414063.785157-3.394531.144531-6.8125.207031-10.238281.207031-7.648438 0-15.203125-.335938-22.675781-.992188-18.953125-1.660156-37.3125-5.390624-54.855469-10.960937-17.03125-5.402344-33.300781-12.550781-48.589844-21.222656v-29.246094c0-44.011719 29.886719-81.042969 70.480469-91.898437 1.484375-.398438 2.976563-.761719 4.492187-1.085938 4.035157-.878906 8.171876-1.484375 12.382813-1.828125 2.570313-.210937 5.160156-.316406 7.785156-.316406h61.949219c6.929688 0 13.679688.734375 20.179688 2.144531.375.070312.75.15625 1.117187.238281 1.097656.25 2.195313.523438 3.269531.816407.03125.011718.054688.011718.085938.019531 10.707031 2.863281 20.675781 7.554687 29.539062 13.710937 24.75 17.175782 40.957032 45.796875 40.957032 78.199219zm0 0" fill="#2f373b"/><path d="m311.847656 356.59375-.226562 1.074219-32.96875 153.339843c-7.460938.65625-15.023438.992188-22.652344.992188-7.648438 0-15.203125-.335938-22.675781-.992188l-32.964844-153.328124-.230469-1.085938zm0 0" fill="#f2efea"/><path d="m255.988281 393.394531-42.828125 23.804688-13.03125-60.601563 26.613282-15.675781" fill="#d8d4ce"/><path d="m255.988281 393.394531 42.828125 23.804688 13.03125-60.601563-26.613281-15.675781" fill="#d8d4ce"/><path d="m289.9375 317.804688v41.652343c0 15.253907-10.054688 28.140625-23.90625 32.421875-3.171875.984375-6.550781 1.515625-10.042969 1.515625-18.746093 0-33.9375-15.191406-33.9375-33.9375v-41.652343zm0 0" fill="#eaa27f"/><path d="m289.9375 356.820312v2.636719c0 15.253907-10.054688 28.140625-23.90625 32.421875-12.496094-3.839844-21.890625-14.707031-23.625-28 2.265625.140625 4.546875.207032 6.835938.207032 6.421874 0 12.714843-.507813 18.847656-1.515626 7.558594-1.214843 14.859375-3.15625 21.847656-5.75zm0 0" fill="#f6ba97"/><path d="m341.160156 371.378906-27.691406 66.996094h13.582031l-28.835937 70.15625c-6.449219 1.066406-12.96875 1.902344-19.5625 2.476562-4.105469.367188-8.242188.625-12.414063.785157l45.296875-154.144531.3125-1.054688zm0 0" fill="#151a1c"/><path d="m170.507812 371.378906 27.6875 66.996094h-13.582031l28.839844 70.15625c6.445313 1.066406 12.964844 1.902344 19.558594 2.476562 4.105469.367188 8.246093.625 12.414062.785157l-45.296875-154.144531-.3125-1.054688zm0 0" fill="#151a1c"/><path d="m256 392.210938-48.703125-28.121094v56.242187zm0 0" fill="#f71c55"/><path d="m256 392.210938 48.707031-28.121094v56.242187zm0 0" fill="#f71c55"/><path d="m265.394531 425.554688c0 5.195312-4.210937 9.402343-9.40625 9.402343-5.191406 0-9.402343-4.207031-9.402343-9.402343 0-5.195313 4.210937-9.402344 9.402343-9.402344 5.195313 0 9.40625 4.207031 9.40625 9.402344zm0 0" fill="#151a1c"/><path d="m265.394531 476.921875c0 5.195313-4.210937 9.402344-9.40625 9.402344-5.191406 0-9.402343-4.207031-9.402343-9.402344s4.210937-9.402344 9.402343-9.402344c5.195313 0 9.40625 4.207031 9.40625 9.402344zm0 0" fill="#151a1c"/><path d="m265.238281 392.582031c0 5.195313-4.210937 9.40625-9.40625 9.40625-5.195312 0-9.402343-4.210937-9.402343-9.40625 0-5.191406 4.207031-9.402343 9.402343-9.402343 5.195313 0 9.40625 4.210937 9.40625 9.402343zm0 0" fill="#f71c55"/><path d="m175.023438 475.457031c0 3.511719-.679688 6.855469-1.914063 9.929688-1.347656 3.363281-3.363281 6.394531-5.890625 8.910156-.472656.472656-.953125.910156-1.453125 1.339844-18.339844-6.90625-35.664063-15.851563-51.710937-26.574219-5.277344-3.519531-10.410157-7.230469-15.390626-11.117188-.023437-.019531-.042968-.03125-.066406-.050781 4.882813-5.570312 12.050782-9.082031 20.03125-9.082031h29.75c14.710938 0 26.644532 11.933594 26.644532 26.644531zm0 0" fill="#eaa27f"/><path d="m173.109375 485.386719c-1.347656 3.363281-3.363281 6.394531-5.890625 8.910156-.472656.472656-.953125.910156-1.453125 1.339844-18.339844-6.90625-35.664063-15.851563-51.710937-26.574219 1.484374-.257812 3.019531-.394531 4.574218-.394531h29.75c11.199219 0 20.792969 6.917969 24.730469 16.71875zm0 0" fill="#f6ba97"/><path d="m252.242188 450.445312h-162.753907c-23.96875-20.542968-44.09375-45.445312-59.140625-73.46875 22.433594-30.132812 58.324219-49.640624 98.785156-49.640624 8.011719 0 15.839844.761718 23.425782 2.234374 56.789062 10.929688 99.683594 60.898438 99.683594 120.875zm0 0" fill="#d8d4ce"/><path d="m252.242188 450.445312h-162.753907c-11.671875-10.011718-22.433593-21.046874-32.140625-32.976562 12.371094-44.617188 49.234375-79.046875 95.210938-87.898438 56.789062 10.929688 99.683594 60.898438 99.683594 120.875zm0 0" fill="#f2efea"/><path d="m146.488281 311.554688c0 7.453124-4.703125 13.804687-11.296875 16.25-1.890625.710937-3.929687 1.097656-6.058594 1.097656-9.582031 0-17.347656-7.765625-17.347656-17.347656 0-9.589844 7.765625-17.355469 17.347656-17.355469 2.128907 0 4.167969.386719 6.058594 1.097656 6.59375 2.445313 11.296875 8.800781 11.296875 16.257813zm0 0" fill="#d8d4ce"/><path d="m146.488281 311.554688c0 7.453124-4.703125 13.804687-11.296875 16.25-6.59375-2.457032-11.285156-8.796876-11.285156-16.25 0-7.449219 4.691406-13.800782 11.285156-16.257813 6.59375 2.445313 11.296875 8.800781 11.296875 16.257813zm0 0" fill="#f2efea"/><path d="m291.695312 450.445312c0 4.140626-3.359374 7.5-7.5 7.5h-185.53125c-3.117187-2.433593-6.175781-4.929687-9.175781-7.5-2.84375-2.445312-5.644531-4.945312-8.378906-7.503906h203.085937c4.140626 0 7.5 3.359375 7.5 7.503906zm0 0" fill="#d8d4ce"/><path d="m324.957031 59.183594c0 27.5625-21.976562 50.738281-51.722656 57.3125-5.519531 1.210937-11.285156 1.859375-17.242187 1.859375-38.085938 0-68.964844-26.5-68.964844-59.171875 0-32.683594 30.878906-59.183594 68.964844-59.183594 5.957031 0 11.722656.648438 17.242187 1.859375 29.746094 6.574219 51.722656 29.75 51.722656 57.324219zm0 0" fill="#151a1c"/><path d="m324.957031 59.183594c0 5.945312-1.027343 11.679687-2.925781 17.09375-14.035156-9.5625-30.25-16.152344-47.742188-18.890625-5.957031-.941407-12.070312-1.421875-18.285156-1.421875h-.011718c-5.484376 0-10.878907.375-16.164063 1.105468-5.625.773438-11.121094 1.945313-16.46875 3.496094-.917969.265625-1.847656-.40625-1.847656-1.363281 0-.007813 0-.011719 0-.019531 0-27.574219 21.984375-50.75 51.722656-57.324219 29.746094 6.574219 51.722656 29.75 51.722656 57.324219zm0 0" fill="#2f373b"/><path d="m161.355469 249.535156c0 15.710938-11.480469 28.742188-26.507813 31.160156-1.644531.265626-3.332031.40625-5.058594.40625-17.4375 0-31.566406-14.128906-31.566406-31.566406s14.128906-31.566406 31.566406-31.566406c1.726563 0 3.414063.140625 5.058594.40625 15.027344 2.417969 26.507813 15.445312 26.507813 31.160156zm0 0" fill="#f6ba97"/><path d="m161.355469 249.535156c0 15.710938-11.480469 28.742188-26.507813 31.160156-2.730468-9.929687-4.191406-20.378906-4.191406-31.160156 0-10.785156 1.457031-21.234375 4.191406-31.160156 15.027344 2.417969 26.507813 15.445312 26.507813 31.160156zm0 0" fill="#eaa27f"/><path d="m141.070312 249.535156c0 6.230469-5.050781 11.28125-11.28125 11.28125-6.230468 0-11.28125-5.050781-11.28125-11.28125 0-6.230468 5.050782-11.28125 11.28125-11.28125 6.230469 0 11.28125 5.050782 11.28125 11.28125zm0 0" fill="#eaa27f"/><path d="m350.640625 249.535156c0 15.710938 11.476563 28.742188 26.507813 31.160156 1.640624.265626 3.332031.40625 5.054687.40625 17.4375 0 31.566406-14.128906 31.566406-31.566406s-14.128906-31.566406-31.566406-31.566406c-1.722656 0-3.414063.140625-5.054687.40625-15.03125 2.417969-26.507813 15.445312-26.507813 31.160156zm0 0" fill="#f6ba97"/><path d="m350.640625 249.535156c0 15.710938 11.476563 28.742188 26.507813 31.160156 2.730468-9.929687 4.1875-20.378906 4.1875-31.160156 0-10.785156-1.457032-21.234375-4.1875-31.160156-15.03125 2.417969-26.507813 15.445312-26.507813 31.160156zm0 0" fill="#eaa27f"/><path d="m393.484375 249.535156c0 6.230469-5.050781 11.28125-11.28125 11.28125s-11.28125-5.050781-11.28125-11.28125c0-6.230468 5.050781-11.28125 11.28125-11.28125s11.28125 5.050782 11.28125 11.28125zm0 0" fill="#eaa27f"/><path d="m373.4375 188.039062v44.722657c0 58.441406-42.695312 106.921875-98.59375 115.921875-.191406.03125-.386719.0625-.578125.09375-5.945313.949218-12.046875 1.417968-18.273437 1.417968-64.855469 0-117.4375-52.578124-117.4375-117.433593v-44.722657c0-13.65625 2.332031-26.78125 6.636718-38.972656 16.058594-45.707031 59.609375-73.25 110.800782-73.25l.011718.523438c6.214844 0 12.328125-4.742188 18.285156-3.804688 56.171876 8.777344 99.148438 56.863282 99.148438 115.503906zm0 0" fill="#eaa27f"/><path d="m373.4375 188.039062v44.722657c0 58.441406-42.695312 106.921875-98.59375 115.921875-.191406.03125-.386719.0625-.578125.09375-56.171875-8.777344-99.136719-57.386719-99.136719-116.015625v-44.722657c0-58.640624 42.976563-106.203124 99.160156-114.980468 56.171876 8.777344 99.148438 56.339844 99.148438 114.980468zm0 0" fill="#f6ba97"/><path d="m373.4375 188.039062c-88.628906 5.382813-117.433594-69.683593-117.433594-69.683593s-10.585937 27.574219-38.652344 48.105469c-18.242187 13.335937-43.875 23.699218-78.796874 21.578124 0-13.65625 2.332031-26.78125 6.636718-38.972656 14.335938-40.804687 50.59375-71.304687 94.636719-77.367187 5.285156-.730469 10.679687-1.105469 16.164063-1.105469h.011718c6.214844 0 12.328125.480469 18.285156 1.421875 56.171876 8.777344 99.148438 57.382813 99.148438 116.023437zm0 0" fill="#2f373b"/><path d="m217.363281 166.441406-.011719.019532c-18.242187 13.335937-43.875 23.699218-78.796874 21.578124 0-13.65625 2.332031-26.78125 6.636718-38.972656 14.335938-40.804687 50.59375-71.304687 94.636719-77.367187 0 0 16.164063 46.65625-22.464844 94.742187zm0 0" fill="#151a1c"/><g fill="#eaa27f"><path d="m335.933594 263.597656c0 8.078125-6.550782 14.625-14.628906 14.625-8.082032 0-14.628907-6.546875-14.628907-14.625 0-8.082031 6.546875-14.628906 14.628907-14.628906 8.078124 0 14.628906 6.546875 14.628906 14.628906zm0 0"/><path d="m205.320312 263.597656c0 8.078125-6.550781 14.625-14.628906 14.625s-14.628906-6.546875-14.628906-14.625c0-8.082031 6.550781-14.628906 14.628906-14.628906s14.628906 6.546875 14.628906 14.628906zm0 0"/><path d="m319.066406 222.84375c0-10.773438-8.734375-19.507812-19.507812-19.507812-10.769532 0-19.503906 8.734374-19.503906 19.507812zm0 0"/><path d="m231.945312 222.84375c0-10.773438-8.730468-19.507812-19.503906-19.507812-10.769531 0-19.503906 8.734374-19.503906 19.507812zm0 0"/></g><path d="m225.765625 231.148438c0 7.355468-5.964844 13.320312-13.324219 13.320312-7.355468 0-13.320312-5.964844-13.320312-13.320312 0-7.359376 5.964844-13.324219 13.320312-13.324219 7.359375 0 13.324219 5.964843 13.324219 13.324219zm0 0" fill="#2f373b"/><path d="m312.882812 231.148438c0 7.355468-5.964843 13.320312-13.324218 13.320312-7.355469 0-13.320313-5.964844-13.320313-13.320312 0-7.359376 5.964844-13.324219 13.320313-13.324219 7.359375 0 13.324218 5.964843 13.324218 13.324219zm0 0" fill="#2f373b"/><path d="m269.324219 264.691406h-26.644531c-3.175782 0-5.746094-2.574218-5.746094-5.75 0-3.171875 2.570312-5.746094 5.746094-5.746094h26.644531c3.175781 0 5.746093 2.574219 5.746093 5.746094 0 3.175782-2.570312 5.75-5.746093 5.75zm0 0" fill="#eaa27f"/><path d="m256 301.050781c-9.832031 0-19.667969-2.464843-28.628906-7.394531-2.53125-1.386719-3.453125-4.566406-2.0625-7.09375s4.566406-3.449219 7.09375-2.0625c14.777344 8.125 32.421875 8.125 47.195312 0 2.527344-1.386719 5.707032-.46875 7.097656 2.0625 1.390626 2.527344.464844 5.707031-2.0625 7.09375-8.964843 4.929688-18.796874 7.394531-28.632812 7.394531zm0 0" fill="#eaa27f"/><path d="m223.046875 228.796875c0 3.152344-2.554687 5.707031-5.707031 5.707031s-5.707032-2.554687-5.707032-5.707031 2.554688-5.710937 5.707032-5.710937 5.707031 2.558593 5.707031 5.710937zm0 0" fill="#fff"/><path d="m310.820312 228.796875c0 3.152344-2.554687 5.707031-5.707031 5.707031-3.152343 0-5.707031-2.554687-5.707031-5.707031s2.554688-5.710937 5.707031-5.710937c3.152344 0 5.707031 2.558593 5.707031 5.710937zm0 0" fill="#fff"/></svg>