<svg width="40" height="40" viewBox="0 0 40 40" fill="none" xmlns="http://www.w3.org/2000/svg">
<g clip-path="url(#clip0)">
<path d="M20 40.0001C31.0458 40.0001 40.0001 31.0458 40.0001 20C40.0001 8.95432 31.0458 0 20 0C8.95432 0 0 8.95432 0 20C0 31.0458 8.95432 40.0001 20 40.0001Z" fill="#E84849"/>
<path d="M34.5422 28.1813L20.8195 6.06444C20.6597 5.80643 20.378 5.64978 20.0748 5.64978C19.7713 5.64978 19.4897 5.80676 19.3298 6.06444L5.57011 28.2419C5.40241 28.5123 5.39388 28.8524 5.54893 29.1303C5.70338 29.4083 5.99709 29.5807 6.31478 29.5807H33.8354H33.8392C34.3233 29.5807 34.7155 29.1881 34.7155 28.7044C34.7149 28.5081 34.6508 28.3275 34.5422 28.1813Z" fill="#EDC92C"/>
<path d="M19.0594 20.4343L18.7749 16.1772C18.7216 15.3476 18.6953 14.7519 18.6953 14.3907C18.6953 13.899 18.8242 13.5153 19.0815 13.2399C19.3392 12.9636 19.679 12.8262 20.0994 12.8262C20.6091 12.8262 20.9502 13.0024 21.1217 13.3549C21.2932 13.7077 21.3793 14.2161 21.3793 14.879C21.3793 15.2702 21.3585 15.6679 21.3175 16.0699L20.9351 20.4517C20.8937 20.9734 20.8049 21.3732 20.6682 21.652C20.5318 21.9302 20.3063 22.0692 19.9926 22.0692C19.6724 22.0692 19.4504 21.935 19.3263 21.665C19.2015 21.3959 19.1125 20.9853 19.0594 20.4343ZM20.046 26.2824C19.6844 26.2824 19.3686 26.1658 19.0995 25.9319C18.8298 25.6982 18.6953 25.3707 18.6953 24.9501C18.6953 24.5825 18.8242 24.2698 19.0815 24.0118C19.3392 23.7541 19.655 23.6252 20.0283 23.6252C20.4019 23.6252 20.7197 23.7538 20.9837 24.0118C21.2473 24.2695 21.3793 24.5824 21.3793 24.9501C21.3793 25.3647 21.2461 25.6903 20.9789 25.9275C20.7123 26.1639 20.4016 26.2824 20.046 26.2824Z" fill="black"/>
</g>
<defs>
<clipPath id="clip0">
<rect width="40" height="40" fill="white"/>
</clipPath>
</defs>
</svg>
